<svg xmlns="http://www.w3.org/2000/svg" xmlns:xlink="http://www.w3.org/1999/xlink" width="405" height="54"><defs><linearGradient id="b" x1="7.18" y1="449.92" x2="8.34" y2="449.92" gradientTransform="matrix(0 -46.927 -46.927 0 21146.9 391.19)" gradientUnits="userSpaceOnUse"><stop offset="0" stop-color="#812525"/><stop offset=".98" stop-color="#cf2328"/><stop offset="1" stop-color="#cf2328"/></linearGradient><linearGradient id="c" x1="7.33" y1="449.91" x2="8.19" y2="449.91" gradientTransform="matrix(0 -46.927 -46.927 0 21146.89 391.19)" gradientUnits="userSpaceOnUse"><stop offset="0" stop-color="#97d0ef"/><stop offset=".02" stop-color="#97d0ef"/><stop offset="1" stop-color="#cbe8f7"/></linearGradient><linearGradient id="a" x1="7.2" y1="450.24" x2="8.32" y2="450.24" gradientTransform="matrix(0 -46.927 -46.927 0 21146.89 391.19)" gradientUnits="userSpaceOnUse"><stop offset="0" stop-color="#70a2c0"/><stop offset=".02" stop-color="#70a2c0"/><stop offset="1" stop-color="#96b5c7"/></linearGradient><linearGradient id="d" x1="7.2" y1="449.58" x2="8.32" y2="449.58" xlink:href="#a"/></defs><path fill="url(#b)" d="M0 0h67v54H0z"/><path fill="url(#c)" d="M61 7H7v40h54V7"/><path d="M88.72 30.89a1.04 1.04 0 0 1 .41-.55 1.46 1.46 0 0 1 .76-.17.94.94 0 0 1 .76.27 1.82 1.82 0 0 1 .22 1.08q0 1.42.03 2.65l.02 1.07a1.36 1.36 0 0 1-.23.93 1.14 1.14 0 0 1-.83.24q-.96 0-1.25-1.37l-.16-.62a2.98 2.98 0 0 0-1.33-1.79 4.37 4.37 0 0 0-2.46-.7 5.1 5.1 0 0 0-4.14 1.9 7.7 7.7 0 0 0-1.56 5.06 7.63 7.63 0 0 0 1.58 5.06 5.17 5.17 0 0 0 4.18 1.89 6.48 6.48 0 0 0 1.72-.24 7.55 7.55 0 0 0 1.72-.72 9.89 9.89 0 0 0 1.07-.7 2.17 2.17 0 0 1 .98-.48 1.07 1.07 0 0 1 .77.3.97.97 0 0 1 .3.73 1.27 1.27 0 0 1-.33.84 5.77 5.77 0 0 1-1.28.98 9.67 9.67 0 0 1-2.46 1.18 8.89 8.89 0 0 1-2.6.38 7.74 7.74 0 0 1-5.95-2.54 9.21 9.21 0 0 1-2.35-6.5 9.28 9.28 0 0 1 2.38-6.52 7.75 7.75 0 0 1 5.97-2.59 8.57 8.57 0 0 1 1.96.23 13.12 13.12 0 0 1 2.1.7zM110.53 35.89a8.67 8.67 0 0 0-11.03-.01 6.63 6.63 0 0 0-2.13 5.1 6.66 6.66 0 0 0 2.13 5.1 8.67 8.67 0 0 0 11.03 0 6.66 6.66 0 0 0 2.13-5.1 6.63 6.63 0 0 0-2.13-5.1zm-1.84 8.7a5.47 5.47 0 0 1-7.35 0 5.32 5.32 0 0 1 0-7.26 5.4 5.4 0 0 1 7.34 0 5.3 5.3 0 0 1 0 7.26zM131.28 39.57a6.96 6.96 0 0 0-.37-2.77 1.3 1.3 0 0 0-1.27-.73 1.96 1.96 0 0 0-1.7.94 4.54 4.54 0 0 0-.63 2.56v6.06h.27a2.27 2.27 0 0 1 1.18.21.91.91 0 0 1 .3.8 1.1 1.1 0 0 1-.25.79 1 1 0 0 1-.75.26h-1.85a1.03 1.03 0 0 1-.86-.29 2.29 2.29 0 0 1-.22-1.25v-7.71a2.75 2.75 0 0 0-.5-1.73 1.61 1.61 0 0 0-1.34-.63 2.02 2.02 0 0 0-1.2.38 3.15 3.15 0 0 0-.92 1.15v8.02h.54a2.2 2.2 0 0 1 1.18.22.9.9 0 0 1 .3.79 1.09 1.09 0 0 1-.25.82 1.44 1.44 0 0 1-.94.23h-3.9a1.2 1.2 0 0 1-.85-.26 1.05 1.05 0 0 1-.27-.8.86.86 0 0 1 .34-.8 2.85 2.85 0 0 1 1.34-.2h.29V36.3h-.26a2.85 2.85 0 0 1-1.4-.23.88.88 0 0 1-.37-.82.96.96 0 0 1 .3-.77 1.3 1.3 0 0 1 .88-.25h2.24a.89.89 0 0 1 .64.17 1.21 1.21 0 0 1 .18.7 3.96 3.96 0 0 1 1.28-.94 3.7 3.7 0 0 1 1.54-.3 2.94 2.94 0 0 1 1.67.44 2.6 2.6 0 0 1 .98 1.34 4.06 4.06 0 0 1 1.41-1.35 3.76 3.76 0 0 1 1.84-.44 3.13 3.13 0 0 1 2.74 1.23 7 7 0 0 1 .87 3.96v6.6h.23a2.27 2.27 0 0 1 1.21.22.9.9 0 0 1 .3.78 1.07 1.07 0 0 1-.25.79 1.05 1.05 0 0 1-.78.26h-1.77a1.05 1.05 0 0 1-.87-.35 1.76 1.76 0 0 1-.29-1.1zM152.7 36.18a6.62 6.62 0 0 0-4.9-1.98 6.55 6.55 0 0 0-2.59.5 6.69 6.69 0 0 0-2.19 1.54v-1.42a.53.53 0 0 0-.2-.45 1.08 1.08 0 0 0-.63-.14h-2.22a1.33 1.33 0 0 0-.88.25.95.95 0 0 0-.3.77.89.89 0 0 0 .37.81 2.82 2.82 0 0 0 1.38.24h.28v15.12h-.28a2.83 2.83 0 0 0-1.38.23.89.89 0 0 0-.37.81.97.97 0 0 0 .3.78 1.3 1.3 0 0 0 .88.26h6.43a1.48 1.48 0 0 0 .95-.23 1.02 1.02 0 0 0 .27-.8 1.04 1.04 0 0 0-.27-.79 1.17 1.17 0 0 0-.83-.26h-3.5V45.6a5.75 5.75 0 0 0 2.17 1.57 7.25 7.25 0 0 0 2.84.54 6.48 6.48 0 0 0 4.76-1.85 6.37 6.37 0 0 0 1.87-4.72 6.76 6.76 0 0 0-1.96-4.96zm-1.83 8.12a4.54 4.54 0 0 1-3.32 1.27 4.57 4.57 0 1 1 0-9.13 4.52 4.52 0 0 1 3.31 1.29 4.8 4.8 0 0 1 0 6.57zM164.05 42.31a3.9 3.9 0 0 0 .77 2.68 3.16 3.16 0 0 0 2.45.85 3.94 3.94 0 0 0 2.72-1 3.23 3.23 0 0 0 1.13-2.53V36.3h-2a1.18 1.18 0 0 1-.83-.24.99.99 0 0 1-.25-.75 1.08 1.08 0 0 1 .27-.82 1.26 1.26 0 0 1 .9-.26h3.1a1.04 1.04 0 0 1 .77.24 1.94 1.94 0 0 1 .23 1.17v10h.67a1.75 1.75 0 0 1 1.02.23.9.9 0 0 1 .32.77.99.99 0 0 1-.3.79 1.27 1.27 0 0 1-.87.26h-2.21a1.03 1.03 0 0 1-.62-.16.51.51 0 0 1-.21-.43v-1a10.72 10.72 0 0 1-2.4 1.48 5.6 5.6 0 0 1-2.1.4 4.73 4.73 0 0 1-3.6-1.28 5.44 5.44 0 0 1-1.2-3.85V36.3h-.31a2.73 2.73 0 0 1-1.35-.23.9.9 0 0 1-.37-.82.98.98 0 0 1 .29-.77 1.3 1.3 0 0 1 .88-.25h2.2a.97.97 0 0 1 .7.2 1.4 1.4 0 0 1 .2.9zM192.54 35.04a1.74 1.74 0 0 1 1.05.25.92.92 0 0 1 .32.79.94.94 0 0 1-.3.76 1.4 1.4 0 0 1-.92.26h-5.9v4.86a5.4 5.4 0 0 0 .62 3.15 2.6 2.6 0 0 0 2.12.76 8.5 8.5 0 0 0 3.17-.78 9.32 9.32 0 0 1 2.3-.77.93.93 0 0 1 .68.3.98.98 0 0 1 .29.7 1.14 1.14 0 0 1-.36.84 3.6 3.6 0 0 1-1.22.7 17.71 17.71 0 0 1-2.57.83 9.62 9.62 0 0 1-2.15.26 6.7 6.7 0 0 1-2.86-.55 3.66 3.66 0 0 1-1.73-1.62 3.75 3.75 0 0 1-.41-1.21 13.5 13.5 0 0 1-.12-2.16V37.1h-2.48a1.34 1.34 0 0 1-.89-.24.98.98 0 0 1-.28-.78.86.86 0 0 1 .38-.81 3.8 3.8 0 0 1 1.62-.22h1.65v-3.76a1.34 1.34 0 0 1 .27-.93 1.07 1.07 0 0 1 .83-.3 1 1 0 0 1 .9.37 3.48 3.48 0 0 1 .24 1.66v2.96zM215.66 44.16a10.11 10.11 0 0 0-2.43.91 9.06 9.06 0 0 1-3.72.91 5.21 5.21 0 0 1-3.56-1.14 4.43 4.43 0 0 1-1.42-3.24h10.01a3.67 3.67 0 0 0 1.86-.28 1.37 1.37 0 0 0 .34-1.1 5.92 5.92 0 0 0-2.02-4.5 7.24 7.24 0 0 0-5.1-1.87 7.7 7.7 0 0 0-5.51 2 6.85 6.85 0 0 0-2.11 5.2 6.71 6.71 0 0 0 2 5.09 7.36 7.36 0 0 0 5.32 1.91 12.93 12.93 0 0 0 3.08-.38 14.78 14.78 0 0 0 3-1.09 3.2 3.2 0 0 0 .98-.69 1.14 1.14 0 0 0 .3-.77.91.91 0 0 0-.29-.68 1.02 1.02 0 0 0-.73-.28zm-9.3-7.3a5.2 5.2 0 0 1 3.26-1.02 4.48 4.48 0 0 1 3.02 1.06 4.24 4.24 0 0 1 1.45 2.79h-9.49a4.82 4.82 0 0 1 1.75-2.83zM228.92 45.63h4.83a1.23 1.23 0 0 1 .84.24.97.97 0 0 1 .27.77 1.07 1.07 0 0 1-.25.82 1.45 1.45 0 0 1-.94.23h-9.53a1.25 1.25 0 0 1-.86-.26 1 1 0 0 1-.3-.8.93.93 0 0 1 .3-.75 1.43 1.43 0 0 1 .93-.25h2.54V36.3h-1a4.07 4.07 0 0 1-1.76-.23.9.9 0 0 1-.35-.82.97.97 0 0 1 .29-.77 1.26 1.26 0 0 1 .86-.25h3.33a.99.99 0 0 1 .6.15.52.52 0 0 1 .2.45v2.47a10.13 10.13 0 0 1 2.88-2.58 6.48 6.48 0 0 1 3.23-.84 3.76 3.76 0 0 1 2.1.52 1.57 1.57 0 0 1 .8 1.35 1.33 1.33 0 0 1-.4.96 1.2 1.2 0 0 1-.88.41 2.85 2.85 0 0 1-1.13-.44 2.98 2.98 0 0 0-1.42-.44 4.46 4.46 0 0 0-2.4.8 13.9 13.9 0 0 0-2.79 2.56zM267.87 47.18a1.49 1.49 0 0 1-.34.9 1.16 1.16 0 0 1-.83.26 1.12 1.12 0 0 1-.9-.35 1.98 1.98 0 0 1-.35-1.16l-.19-3.38v-.26a1.44 1.44 0 0 1 .27-1 1.18 1.18 0 0 1 .9-.29q.88 0 1.25 1.26a5.63 5.63 0 0 0 .34.94 3.48 3.48 0 0 0 1.6 1.58 5.78 5.78 0 0 0 2.64.55 4.92 4.92 0 0 0 3.05-.89 2.74 2.74 0 0 0 1.17-2.27 2.46 2.46 0 0 0-.72-1.85 3.7 3.7 0 0 0-2.1-.9l-2.16-.3a8.72 8.72 0 0 1-4.4-1.58 4.05 4.05 0 0 1-1.38-3.28 4.67 4.67 0 0 1 1.84-3.74 7 7 0 0 1 4.6-1.52 7.31 7.31 0 0 1 1.69.21 14.55 14.55 0 0 1 2 .67.78.78 0 0 1 .24-.59 1.16 1.16 0 0 1 .7-.16 1.53 1.53 0 0 1 .9.2 1.29 1.29 0 0 1 .3.9l.2 3.04v.14a1.06 1.06 0 0 1-.3.8 1.12 1.12 0 0 1-.81.29q-.77 0-1.2-1.08a4 4 0 0 0-.4-.92 3.06 3.06 0 0 0-1.4-1.12 5.08 5.08 0 0 0-2.05-.4 4.46 4.46 0 0 0-2.86.88 2.78 2.78 0 0 0-1.1 2.29 2.1 2.1 0 0 0 .82 1.74 5.29 5.29 0 0 0 2.52.88l2.33.29a6.68 6.68 0 0 1 3.82 1.55 4.32 4.32 0 0 1 1.28 3.29 4.8 4.8 0 0 1-1.82 3.92 7.48 7.48 0 0 1-4.87 1.48 8.93 8.93 0 0 1-2.08-.25 12.43 12.43 0 0 1-2.2-.77zM297.4 35.1v-.06a.86.86 0 0 1 .28-.7 1.35 1.35 0 0 1 .86-.23.9.9 0 0 1 .82.35 3.02 3.02 0 0 1 .22 1.44v2.71a1.08 1.08 0 0 1-.27.8 1.15 1.15 0 0 1-.83.28 1.05 1.05 0 0 1-.68-.23 3.45 3.45 0 0 1-.7-.94 5.01 5.01 0 0 0-1.7-1.78 4.35 4.35 0 0 0-2.3-.6 5.16 5.16 0 0 0-3.69 1.34 4.55 4.55 0 0 0-1.41 3.46 4.83 4.83 0 0 0 1.36 3.55 4.72 4.72 0 0 0 3.5 1.38 6.34 6.34 0 0 0 1.86-.27 6.07 6.07 0 0 0 1.67-.81c.18-.12.43-.3.74-.54a2.75 2.75 0 0 1 1.49-.77.97.97 0 0 1 1.02 1.02q0 1.15-2.18 2.35a9.43 9.43 0 0 1-4.63 1.2 7.3 7.3 0 0 1-5.26-2.02 7.14 7.14 0 0 1-.01-10.12 7.24 7.24 0 0 1 5.24-2.03 8.6 8.6 0 0 1 2.23.3 12.73 12.73 0 0 1 2.37.92zM315.26 45.63h4.67a1.23 1.23 0 0 1 .84.24.97.97 0 0 1 .27.77 1.07 1.07 0 0 1-.26.82 1.45 1.45 0 0 1-.93.23h-11.31a1.27 1.27 0 0 1-.88-.26 1 1 0 0 1-.29-.8.92.92 0 0 1 .31-.75 1.43 1.43 0 0 1 .92-.25h4.44V36.3h-2.84a1.36 1.36 0 0 1-.91-.27.97.97 0 0 1-.31-.78.96.96 0 0 1 .29-.77 1.3 1.3 0 0 1 .87-.25h4.27a1.05 1.05 0 0 1 .62.16.5.5 0 0 1 .23.44zM312.56 30.03a4.21 4.21 0 0 1 .28-1.98 1.42 1.42 0 0 1 1.22-.41 1.56 1.56 0 0 1 1.2.34 2.86 2.86 0 0 1 .29 1.63 2.71 2.71 0 0 1-.27 1.55 1.7 1.7 0 0 1-1.22.3 1.84 1.84 0 0 1-1.22-.28 1.66 1.66 0 0 1-.28-1.15zM341 44.16a10.11 10.11 0 0 0-2.43.91 9.06 9.06 0 0 1-3.72.91 5.21 5.21 0 0 1-3.56-1.14 4.43 4.43 0 0 1-1.42-3.24h10a3.67 3.67 0 0 0 1.87-.28 1.37 1.37 0 0 0 .34-1.1 5.92 5.92 0 0 0-2.03-4.5 7.24 7.24 0 0 0-5.1-1.87 7.7 7.7 0 0 0-5.5 2 6.85 6.85 0 0 0-2.12 5.2 6.71 6.71 0 0 0 2 5.09 7.36 7.36 0 0 0 5.32 1.91 12.93 12.93 0 0 0 3.08-.38 14.78 14.78 0 0 0 3.01-1.09 3.18 3.18 0 0 0 .98-.68 1.14 1.14 0 0 0 .3-.78.91.91 0 0 0-.29-.68 1.02 1.02 0 0 0-.73-.28zm-9.31-7.3a5.2 5.2 0 0 1 3.26-1.02 4.49 4.49 0 0 1 3.03 1.06 4.24 4.24 0 0 1 1.45 2.79h-9.49a4.82 4.82 0 0 1 1.75-2.83zM350.26 45.63V36.3h-.28a2.77 2.77 0 0 1-1.36-.23.89.89 0 0 1-.37-.82.93.93 0 0 1 .3-.78 1.6 1.6 0 0 1 1-.24h2.08a1.02 1.02 0 0 1 .61.16.51.51 0 0 1 .22.44v.99a8 8 0 0 1 2.1-1.47 5.16 5.16 0 0 1 2.17-.47 4.47 4.47 0 0 1 3.46 1.37 5.38 5.38 0 0 1 1.26 3.79v6.6h.68a1.77 1.77 0 0 1 1.05.24.89.89 0 0 1 .32.76.92.92 0 0 1-.34.81 2.23 2.23 0 0 1-1.22.24h-3.22a2.1 2.1 0 0 1-1.2-.22 1.05 1.05 0 0 1-.25-.83.9.9 0 0 1 .3-.78 2.12 2.12 0 0 1 1.15-.22h.51v-6.06a3.88 3.88 0 0 0-.77-2.6 2.8 2.8 0 0 0-2.24-.9 3.84 3.84 0 0 0-2.63 1 3.2 3.2 0 0 0-1.13 2.5v6.06h.5a2.2 2.2 0 0 1 1.19.21.9.9 0 0 1 .3.8 1.05 1.05 0 0 1-.26.82 2.35 2.35 0 0 1-1.28.22h-3.44a1.35 1.35 0 0 1-.9-.26.99.99 0 0 1-.3-.79.86.86 0 0 1 .34-.8 2.84 2.84 0 0 1 1.34-.2zM380.95 35.1v-.06a.86.86 0 0 1 .28-.7 1.35 1.35 0 0 1 .86-.23.9.9 0 0 1 .82.35 3.02 3.02 0 0 1 .23 1.44v2.71a1.08 1.08 0 0 1-.28.8 1.15 1.15 0 0 1-.83.28 1.05 1.05 0 0 1-.68-.23 3.45 3.45 0 0 1-.69-.94 5.01 5.01 0 0 0-1.7-1.78 4.35 4.35 0 0 0-2.3-.6 5.16 5.16 0 0 0-3.7 1.34 4.55 4.55 0 0 0-1.41 3.47 4.83 4.83 0 0 0 1.36 3.54 4.72 4.72 0 0 0 3.5 1.38 6.34 6.34 0 0 0 1.86-.27 6.07 6.07 0 0 0 1.67-.8c.18-.12.43-.3.74-.55a2.75 2.75 0 0 1 1.49-.77.97.97 0 0 1 1.02 1.02q0 1.15-2.18 2.35a9.43 9.43 0 0 1-4.63 1.2 7.3 7.3 0 0 1-5.26-2.02 7.14 7.14 0 0 1-.01-10.12 7.24 7.24 0 0 1 5.24-2.03 8.6 8.6 0 0 1 2.22.3 12.73 12.73 0 0 1 2.38.92zM403.66 44.16a10.13 10.13 0 0 0-2.43.91 9.06 9.06 0 0 1-3.72.91 5.21 5.21 0 0 1-3.56-1.14 4.43 4.43 0 0 1-1.42-3.24h10.01a3.67 3.67 0 0 0 1.86-.28 1.37 1.37 0 0 0 .34-1.1 5.92 5.92 0 0 0-2.02-4.5 7.24 7.24 0 0 0-5.1-1.87 7.7 7.7 0 0 0-5.51 2 6.85 6.85 0 0 0-2.11 5.2 6.71 6.71 0 0 0 2 5.09 7.36 7.36 0 0 0 5.32 1.91 12.94 12.94 0 0 0 3.08-.38 14.78 14.78 0 0 0 3-1.09 3.19 3.19 0 0 0 .98-.69 1.15 1.15 0 0 0 .3-.77.91.91 0 0 0-.29-.68 1.02 1.02 0 0 0-.73-.28zm-9.3-7.3a5.2 5.2 0 0 1 3.26-1.02 4.48 4.48 0 0 1 3.02 1.06 4.23 4.23 0 0 1 1.45 2.79h-9.49a4.82 4.82 0 0 1 1.75-2.83zM78.67 10.72a2.83 2.83 0 0 1-.25 1.4 1.06 1.06 0 0 1-.88.3 1 1 0 0 1-.77-.28 1.11 1.11 0 0 1-.25-.8l.03-.68.14-4.8a1.1 1.1 0 0 1 .3-.78 1.18 1.18 0 0 1 .8-.24h12.67a1.18 1.18 0 0 1 .82.24 1.05 1.05 0 0 1 .27.78l.16 4.8c0 .18 0 .34.02.5l.01.22a1 1 0 0 1-.28.78 1.19 1.19 0 0 1-.83.26.94.94 0 0 1-.8-.3 2.9 2.9 0 0 1-.24-1.4l-.15-3.78h-4.18v13.12h2.8a1.34 1.34 0 0 1 .9.24.96.96 0 0 1 .27.76 1.07 1.07 0 0 1-.26.78 1 1 0 0 1-.76.27h-8.17a1 1 0 0 1-.76-.27 1.07 1.07 0 0 1-.26-.78.94.94 0 0 1 .29-.77 1.54 1.54 0 0 1 .96-.23H83V6.93h-4.18zM99.53 20.06V5.14h-.28a2.79 2.79 0 0 1-1.36-.23.89.89 0 0 1-.37-.82 1 1 0 0 1 .3-.79 1.27 1.27 0 0 1 .87-.26h2.21a1.03 1.03 0 0 1 .61.16.52.52 0 0 1 .22.44v6.6a7.98 7.98 0 0 1 2.1-1.46A5.16 5.16 0 0 1 106 8.3a4.47 4.47 0 0 1 3.46 1.37 5.38 5.38 0 0 1 1.26 3.79v6.6h.69a1.77 1.77 0 0 1 1.04.24.89.89 0 0 1 .33.76 1 1 0 0 1-.3.79 1.27 1.27 0 0 1-.87.26h-3.88a1.38 1.38 0 0 1-.92-.22 1.1 1.1 0 0 1-.24-.83.91.91 0 0 1 .3-.8 2.1 2.1 0 0 1 1.13-.2h.51V14a3.88 3.88 0 0 0-.77-2.6 2.8 2.8 0 0 0-2.25-.9 3.83 3.83 0 0 0-2.63 1 3.2 3.2 0 0 0-1.13 2.5v6.06h.51a2.2 2.2 0 0 1 1.18.22.9.9 0 0 1 .3.79 1.11 1.11 0 0 1-.23.82 1.38 1.38 0 0 1-.93.22H98.7a1.22 1.22 0 0 1-.86-.26 1.02 1.02 0 0 1-.28-.78.86.86 0 0 1 .34-.8 2.83 2.83 0 0 1 1.34-.2zM152.3 10.31a8.67 8.67 0 0 0-11.02 0 6.63 6.63 0 0 0-2.13 5.09 6.66 6.66 0 0 0 2.13 5.1 8.67 8.67 0 0 0 11.03 0 6.66 6.66 0 0 0 2.12-5.1 6.63 6.63 0 0 0-2.13-5.09zm-1.84 8.7a5.47 5.47 0 0 1-7.35.01 4.88 4.88 0 0 1-1.42-3.62 4.91 4.91 0 0 1 5.1-5.07 4.99 4.99 0 0 1 3.67 1.43 4.91 4.91 0 0 1 1.44 3.64 4.88 4.88 0 0 1-1.43 3.62zM166.25 20.06h4.84a1.23 1.23 0 0 1 .83.24.97.97 0 0 1 .27.76 1.07 1.07 0 0 1-.25.83 1.45 1.45 0 0 1-.94.22h-9.53a1.25 1.25 0 0 1-.86-.26 1 1 0 0 1-.29-.79.93.93 0 0 1 .3-.75 1.43 1.43 0 0 1 .93-.25h2.53v-9.34h-1a4.07 4.07 0 0 1-1.75-.23.9.9 0 0 1-.35-.82.97.97 0 0 1 .28-.76 1.26 1.26 0 0 1 .87-.26h3.32a.99.99 0 0 1 .6.15.52.52 0 0 1 .2.45v2.48a10.15 10.15 0 0 1 2.88-2.58 6.48 6.48 0 0 1 3.24-.85 3.76 3.76 0 0 1 2.1.53 1.57 1.57 0 0 1 .8 1.35 1.33 1.33 0 0 1-.4.95 1.2 1.2 0 0 1-.88.42 2.85 2.85 0 0 1-1.13-.44 2.98 2.98 0 0 0-1.42-.45 4.47 4.47 0 0 0-2.4.81 13.93 13.93 0 0 0-2.8 2.56zM194.77 18.59a10.09 10.09 0 0 0-2.43.9 9.06 9.06 0 0 1-3.71.92 5.21 5.21 0 0 1-3.57-1.15 4.43 4.43 0 0 1-1.42-3.24h10.01a3.66 3.66 0 0 0 1.86-.27 1.37 1.37 0 0 0 .34-1.1 5.92 5.92 0 0 0-2.02-4.51 7.24 7.24 0 0 0-5.1-1.87 7.69 7.69 0 0 0-5.51 2 6.84 6.84 0 0 0-2.11 5.22 6.71 6.71 0 0 0 2 5.08 7.36 7.36 0 0 0 5.31 1.91 12.98 12.98 0 0 0 3.08-.38 14.73 14.73 0 0 0 3-1.1 3.17 3.17 0 0 0 .98-.68 1.14 1.14 0 0 0 .31-.77.9.9 0 0 0-.3-.68 1.01 1.01 0 0 0-.72-.28zm-9.3-7.3a5.2 5.2 0 0 1 3.26-1.02 4.48 4.48 0 0 1 3.02 1.05 4.24 4.24 0 0 1 1.45 2.8h-9.48a4.82 4.82 0 0 1 1.74-2.83zM213.43 9.47a1.73 1.73 0 0 1 1.04.24.92.92 0 0 1 .33.8.94.94 0 0 1-.3.76 1.4 1.4 0 0 1-.92.25h-5.9v4.87a5.4 5.4 0 0 0 .62 3.14 2.6 2.6 0 0 0 2.12.76 8.5 8.5 0 0 0 3.17-.77 9.32 9.32 0 0 1 2.3-.77.93.93 0 0 1 .68.29.98.98 0 0 1 .29.71 1.14 1.14 0 0 1-.36.84 3.6 3.6 0 0 1-1.22.7 17.71 17.71 0 0 1-2.57.82 9.62 9.62 0 0 1-2.15.27 6.7 6.7 0 0 1-2.86-.55 3.66 3.66 0 0 1-1.73-1.63 3.75 3.75 0 0 1-.41-1.2 13.5 13.5 0 0 1-.13-2.16v-5.32h-2.47a1.34 1.34 0 0 1-.9-.24.98.98 0 0 1-.27-.78.86.86 0 0 1 .38-.81 3.8 3.8 0 0 1 1.62-.22h1.64V5.7a1.35 1.35 0 0 1 .27-.93 1.07 1.07 0 0 1 .84-.3 1 1 0 0 1 .89.37 3.48 3.48 0 0 1 .25 1.66v2.96zM231.7 20.06h4.68a1.23 1.23 0 0 1 .83.24.97.97 0 0 1 .27.76 1.07 1.07 0 0 1-.25.83 1.45 1.45 0 0 1-.94.22h-11.3a1.27 1.27 0 0 1-.88-.26 1 1 0 0 1-.3-.79.92.92 0 0 1 .31-.75 1.44 1.44 0 0 1 .92-.25h4.45v-9.34h-2.85a1.36 1.36 0 0 1-.9-.27.97.97 0 0 1-.32-.78.96.96 0 0 1 .3-.76 1.3 1.3 0 0 1 .87-.26h4.26a1.05 1.05 0 0 1 .62.16.5.5 0 0 1 .23.44zM229 4.46a4.21 4.21 0 0 1 .28-1.99 1.42 1.42 0 0 1 1.22-.4 1.56 1.56 0 0 1 1.2.34 2.87 2.87 0 0 1 .29 1.62 2.71 2.71 0 0 1-.27 1.55 1.7 1.7 0 0 1-1.22.3 1.84 1.84 0 0 1-1.22-.27 1.66 1.66 0 0 1-.28-1.16zM255.62 9.53v-.06a.86.86 0 0 1 .27-.71 1.35 1.35 0 0 1 .87-.23.9.9 0 0 1 .82.35 3.01 3.01 0 0 1 .22 1.45v2.7a1.08 1.08 0 0 1-.27.81 1.15 1.15 0 0 1-.83.27 1.06 1.06 0 0 1-.68-.22 3.46 3.46 0 0 1-.7-.94 5.01 5.01 0 0 0-1.7-1.79 4.34 4.34 0 0 0-2.29-.6 5.16 5.16 0 0 0-3.7 1.34 4.55 4.55 0 0 0-1.41 3.47 4.83 4.83 0 0 0 1.36 3.54 4.72 4.72 0 0 0 3.5 1.38 6.34 6.34 0 0 0 1.86-.27 6.04 6.04 0 0 0 1.67-.8c.18-.12.43-.3.74-.55a2.75 2.75 0 0 1 1.49-.77.97.97 0 0 1 1.02 1.02q0 1.15-2.18 2.35a9.42 9.42 0 0 1-4.63 1.2 7.3 7.3 0 0 1-5.26-2.02 6.72 6.72 0 0 1-2.1-5.05 6.76 6.76 0 0 1 2.1-5.07 7.23 7.23 0 0 1 5.24-2.03 8.6 8.6 0 0 1 2.22.3 12.74 12.74 0 0 1 2.37.93zM279.71 20.28a2.93 2.93 0 0 0-1.38-.22h-.71v-6.6a5.21 5.21 0 0 0-1.32-3.86 5.28 5.28 0 0 0-3.88-1.3 12.02 12.02 0 0 0-4.11.6q-1.61.6-1.61 1.46a1.36 1.36 0 0 0 .28.88.86.86 0 0 0 .7.34 6.23 6.23 0 0 0 1.85-.61 6.38 6.38 0 0 1 2.53-.61 3.4 3.4 0 0 1 2.5.8 3.38 3.38 0 0 1 .8 2.48v.1a14.17 14.17 0 0 0-1.77-.35 13.49 13.49 0 0 0-1.7-.1 8.44 8.44 0 0 0-4.98 1.26 4.14 4.14 0 0 0-1.77 3.57 4.05 4.05 0 0 0 1.34 3.15 5.02 5.02 0 0 0 3.5 1.2 7.67 7.67 0 0 0 2.89-.56 8.77 8.77 0 0 0 2.6-1.65l.12.9a1.26 1.26 0 0 0 .35.7.93.93 0 0 0 .67.25h2.29a1.27 1.27 0 0 0 .87-.26 1 1 0 0 0 .3-.79.85.85 0 0 0-.36-.78zm-4.35-3.03q0 1.04-1.58 2.01a6.44 6.44 0 0 1-3.43.97 3.21 3.21 0 0 1-2.07-.64 2 2 0 0 1-.8-1.63 2.3 2.3 0 0 1 1.3-2.04 7.04 7.04 0 0 1 3.54-.76 9.33 9.33 0 0 1 1.49.13 10.56 10.56 0 0 1 1.55.38zM292.04 5.14h-2.48a4.15 4.15 0 0 1-1.77-.23.9.9 0 0 1-.36-.82 1 1 0 0 1 .3-.79 1.28 1.28 0 0 1 .87-.26h4.8a1.03 1.03 0 0 1 .61.16.52.52 0 0 1 .22.44v16.42h4.58a1.15 1.15 0 0 1 .8.24 1 1 0 0 1 .26.76 1.09 1.09 0 0 1-.25.83 1.42 1.42 0 0 1-.93.22h-10.75a1.28 1.28 0 0 1-.87-.26 1 1 0 0 1-.3-.79.92.92 0 0 1 .31-.75 1.44 1.44 0 0 1 .92-.25h4.03zM132.1 18.59a10.09 10.09 0 0 0-2.43.9 9.06 9.06 0 0 1-3.71.92 5.21 5.21 0 0 1-3.56-1.15 4.43 4.43 0 0 1-1.43-3.24h10.01a3.66 3.66 0 0 0 1.86-.27 1.37 1.37 0 0 0 .34-1.1 5.92 5.92 0 0 0-2.02-4.51 7.24 7.24 0 0 0-5.1-1.87 7.69 7.69 0 0 0-5.5 2 6.84 6.84 0 0 0-2.12 5.22 6.71 6.71 0 0 0 2 5.08 7.36 7.36 0 0 0 5.32 1.91 12.98 12.98 0 0 0 3.08-.38 14.73 14.73 0 0 0 3-1.1 3.17 3.17 0 0 0 .98-.68 1.14 1.14 0 0 0 .3-.77.9.9 0 0 0-.28-.68 1.01 1.01 0 0 0-.73-.28zm-9.3-7.3a5.2 5.2 0 0 1 3.26-1.02 4.48 4.48 0 0 1 3.02 1.05 4.24 4.24 0 0 1 1.45 2.8h-9.48a4.82 4.82 0 0 1 1.75-2.83z" fill="#135179"/><path d="M18.7 21.67l-.85-.74.37-.42a20.97 20.97 0 0 1 15.8-7.26h.07a20.81 20.81 0 0 1 12.16 3.89l.46.33-.66.92-.46-.33a19.68 19.68 0 0 0-11.5-3.68h-.07a19.84 19.84 0 0 0-14.94 6.87z" fill="#105079"/><path d="M48.52 19.8a17.06 17.06 0 0 1-2-5.15l-.97 2.69-2.46 1.44a17.04 17.04 0 0 1 5.43 1.02z" fill="#105079"/><path d="M25.98 29a7.44 7.44 0 0 1-14.8 0c-.02.26-.03.5-.03.76a7.44 7.44 0 1 0 14.87 0c0-.25 0-.5-.03-.75" fill="url(#a)"/><path d="M26.02 28.29a7.44 7.44 0 1 1-7.44-7.48 7.46 7.46 0 0 1 7.44 7.48" fill="#4b8db5"/><path fill="#fff" d="M18 31h1v1h-1v-1"/><path d="M18.58 21.9A6.25 6.25 0 0 0 15 23.04a3.29 3.29 0 0 0-1.33 2.54c0 1.92 1.93 3.5 4.4 3.7h1.43c2.27-.33 3.99-1.89 3.99-3.7a3.28 3.28 0 0 0-1.33-2.54 6.25 6.25 0 0 0-3.58-1.12" fill="#7dadca"/><path d="M18.58 20.78a7.48 7.48 0 1 0 7.44 7.47 7.46 7.46 0 0 0-7.44-7.47zm0 13.72a6.25 6.25 0 1 1 6.25-6.25 6.25 6.25 0 0 1-6.25 6.25z" fill="#105079"/><path d="M56.87 29a7.44 7.44 0 0 1-14.8 0c-.02.26-.04.5-.04.76a7.44 7.44 0 1 0 14.88 0c0-.25-.01-.5-.04-.75" fill="url(#d)"/><path d="M56.9 28.25a7.44 7.44 0 1 1-7.43-7.47 7.46 7.46 0 0 1 7.44 7.47" fill="#e0e6e9"/><path d="M49.47 21.9a6.25 6.25 0 0 0-3.19.88 3.41 3.41 0 0 0-1.67 2.8c0 1.92 1.93 3.5 4.42 3.7h.9c2.52-.16 4.5-1.76 4.5-3.7a3.19 3.19 0 0 0-1.06-2.32 6.26 6.26 0 0 0-3.9-1.35" fill="#edf0f2"/><path d="M49.47 20.78a7.48 7.48 0 1 0 7.44 7.47 7.46 7.46 0 0 0-7.44-7.47zm0 13.72a6.25 6.25 0 1 1 6.25-6.25 6.25 6.25 0 0 1-6.25 6.25z" fill="#bdc7cd"/><path d="M16.24 27a2.97 2.97 0 0 1 .17-1.02 2.2 2.2 0 0 1 .49-.8 2.23 2.23 0 0 1 .78-.5 2.77 2.77 0 0 1 1.02-.18 2.67 2.67 0 0 1 .88.14 2.12 2.12 0 0 1 .7.4 1.84 1.84 0 0 1 .48.65 2.14 2.14 0 0 1 .17.88 2.21 2.21 0 0 1-.08.62 1.61 1.61 0 0 1-.2.45 1.9 1.9 0 0 1-.29.34l-.33.29c-.13.1-.24.21-.35.32a1.85 1.85 0 0 0-.29.34 1.51 1.51 0 0 0-.19.44 2.5 2.5 0 0 0-.07.63h-1.11a5.3 5.3 0 0 1 .04-.76 2.2 2.2 0 0 1 .15-.55 1.75 1.75 0 0 1 .25-.42 2.81 2.81 0 0 1 .36-.35l.31-.27a1.8 1.8 0 0 0 .27-.27 1.16 1.16 0 0 0 .18-.33 1.3 1.3 0 0 0 .07-.44 1.19 1.19 0 0 0-.11-.53 1.08 1.08 0 0 0-.26-.35 1.04 1.04 0 0 0-.33-.2.96.96 0 0 0-.3-.06 1.08 1.08 0 0 0-.94.41 1.84 1.84 0 0 0-.3 1.12H16" fill="#fff"/><path fill="#4983a6" d="M49.5 31h.5v1h-1v-1M50 24.5h-1.2v2.63l.2 1.9v.46h1v-.46l.2-1.9V24.51H50z"/></svg>