<svg width="333" height="54" xmlns="http://www.w3.org/2000/svg"><defs><linearGradient x1="35.83%" y1="16.97%" x2="64.5%" y2="83.8%" id="a"><stop stop-color="#D1FFFB" offset="0%"/><stop stop-color="#FFF" offset="100%"/></linearGradient></defs><g fill="none" fill-rule="evenodd"><path d="M85.15 31.87a9.1 9.1 0 0 1-5.89 2.22c-4.8 0-8.08-3.66-8.08-8.5 0-4.81 3.43-8.48 8.02-8.48 2.75 0 4.8 1.38 5.6 2.04l.76-2.14a10.3 10.3 0 0 0-6.42-2.15c-5.86 0-10.45 4.65-10.45 10.74 0 6.12 4.44 10.74 10.51 10.74 3.49 0 5.89-1.66 6.69-2.36l-.74-2.1zM98.54 34.1c-4.59 0-8.08-3.6-8.08-8.5 0-4.86 3.48-8.5 8.08-8.5 4.59 0 8.08 3.64 8.08 8.5 0 4.9-3.5 8.5-8.08 8.5m0-19.24c-6.01 0-10.57 4.65-10.57 10.74 0 6.16 4.53 10.74 10.54 10.74 6.03 0 10.59-4.65 10.59-10.74 0-6.03-4.52-10.74-10.57-10.74M115.54 15.24h-3.08v20.71h2.3V18.7l7.02 15.36h2.37l7-15.36v17.25h2.32V15.24h-3.05l-7.45 16.13zM143.51 25.15h-3.07v-7.78h3.07c2.49 0 3.94 1.48 3.94 3.85 0 2.4-1.45 3.93-3.94 3.93m.21-9.91h-5.68v20.71h2.4V27.3h3.27c3.65 0 6.2-2.34 6.2-6.07 0-3.76-2.43-5.98-6.19-5.98M160.57 36.34c4.92 0 7.73-3.17 7.73-7.84V15.24h-2.37v13.23c0 3.47-1.86 5.65-5.36 5.65-3.49 0-5.33-2.18-5.33-5.62V15.24h-2.4v13.3c0 4.7 2.75 7.8 7.73 7.8M176.63 35.95h2.4V17.44h5.55v-2.2h-13.55v2.2h5.6zM187.76 35.95h10.15V33.8h-7.75v-7.32h6.48v-2.15h-6.48v-6.9h7.43v-2.2h-9.83zM206.96 24.86h-2.88v-7.49h2.73c2.93 0 4.08 1.45 4.08 3.64 0 2.73-1.51 3.85-3.93 3.85zm2.83 1.6c2.4-.77 3.62-3.02 3.62-5.47 0-3.62-2.22-5.75-6.45-5.75h-5.28v20.71h2.4v-8.98h3.52l4.69 8.98h2.66l-5.16-9.49zM230.4 14.86c-4.12 0-6.8 2.43-6.8 6.15 0 6.64 8.58 6.4 8.58 9.15 0 .91-.63 1.45-1.84 1.45-1.42 0-2.54-1.1-3.11-2.32L223 31.41a7.2 7.2 0 0 0 7.04 4.93c4.53 0 7.25-2.74 7.25-6.57 0-6.33-8.63-6.03-8.63-8.85 0-.8.64-1.4 1.62-1.4 1.57 0 2.2 1.14 2.6 2.06l4.21-1.92a6.8 6.8 0 0 0-6.69-4.8M249.9 36.34c2.58 0 4.65-.74 6.13-1.74l-1.43-4.44a8.4 8.4 0 0 1-4.52 1.45c-3.78 0-5.86-2.81-5.86-6.04s2.08-5.98 5.86-5.98c1.78 0 3.34.71 4.44 1.45l1.42-4.44a10.52 10.52 0 0 0-6.03-1.74c-6.46 0-10.96 4.65-10.96 10.71 0 6.1 4.26 10.77 10.95 10.77M258.63 35.95h5.06V15.24h-5.06zM278.64 35.95v-4.52h-6.22v-3.7h5.1v-4.5h-5.1v-3.46h5.98v-4.53h-11.04v20.71zM294.32 35.95h5.03V15.24h-4.96v12.85l-7.58-12.85h-5.15v20.71h4.97V23.27zM312.88 36.34c2.57 0 4.65-.74 6.13-1.74l-1.43-4.44a8.4 8.4 0 0 1-4.53 1.45c-3.78 0-5.86-2.81-5.86-6.04s2.08-5.98 5.86-5.98c1.78 0 3.35.71 4.44 1.45l1.43-4.44a10.51 10.51 0 0 0-6.04-1.74c-6.45 0-10.95 4.65-10.95 10.71 0 6.1 4.26 10.77 10.95 10.77M332.24 35.95v-4.52h-6.22v-3.7h5.1v-4.5h-5.1v-3.46h5.99v-4.53h-11.04v20.71z" fill="#FFF"/><path d="M30.63 13.59l-5.57 8.57a7 7 0 0 1-7.43 11.43l-5.57 8.57a7 7 0 1 1-2.68-1.75l5.56-8.57a7 7 0 0 1 7.43-11.43l5.57-8.57a7 7 0 1 1 2.68 1.75z" fill="url(#a)"/><path d="M41.04 22.06l-3.38-5.19a1.6 1.6 0 0 1 2.68-1.74l3.42 5.24a7 7 0 1 1-2.72 1.69zM27.47 42.7l-3.81-5.84a1.6 1.6 0 0 1 2.68-1.74l3.63 5.56a7 7 0 1 1-2.5 2.02z" fill="url(#a)"/></g></svg>